<?xml version="1.0" encoding="UTF-8" standalone="no"?><!DOCTYPE svg PUBLIC "-//W3C//DTD SVG 1.1//EN" "http://www.w3.org/Graphics/SVG/1.1/DTD/svg11.dtd"><svg width="100%" height="100%" viewBox="0 0 300 1100" version="1.1" xmlns="http://www.w3.org/2000/svg" xmlns:xlink="http://www.w3.org/1999/xlink" xml:space="preserve" xmlns:serif="http://www.serif.com/" style="fill-rule:evenodd;clip-rule:evenodd;stroke-linejoin:round;stroke-miterlimit:2;"><g><rect x="0" y="0" width="299.988" height="1100" style="fill:#ff313e;"/></g><g id="ARRIVED"><path d="M285.788,28.409l-6.697,6.697l0,5.023l10.046,3.348l0,5.023l-28.462,0l0,-5.023l10.046,-3.348l0,-5.023l-6.697,-6.697l0,-1.674l-5.023,0l0,-6.697l5.023,0l0,-1.674l-3.348,-3.348l0,-1.674l28.462,0l0,1.674l-3.348,3.348l0,1.674l5.023,0l0,6.697l-5.023,0l0,1.674l-0.001,0Z" style="fill:#fff;fill-rule:nonzero;stroke:#000;stroke-width:3px;"/><path d="M273.317,28.455l4.851,0" style="fill:none;stroke:#000;stroke-width:2px;stroke-linecap:round;stroke-miterlimit:1.5;"/><path d="M264,26.5l0,2l7,7l0,5l-9,2.977l0,5.023l25.988,0l0.012,-5l-9,-3l0,-5l7,-7l0,-2m-22,0l0,-6m0,6l-5,-0l0.001,-6l4.999,0m0,0l0,-2l-3,-3l0,-2l28,0l0,2l-3,3l0,2m0,6l0,-6m0,6l5,0l0,-6l-5,0" style="fill:none;fill-rule:nonzero;stroke:#000;stroke-width:2px;stroke-miterlimit:4;"/><path d="M279,40.5l-8,0" style="fill:none;stroke:#000;stroke-width:2px;stroke-linecap:round;stroke-miterlimit:1.5;"/><path d="M279,35.5l-8,0" style="fill:none;stroke:#000;stroke-width:2px;stroke-linecap:round;stroke-miterlimit:1.5;"/><path d="M275.743,28.409l0,-10.046l-3.348,3.348" style="fill:none;fill-rule:nonzero;stroke:#000;stroke-width:1.56px;stroke-linecap:round;stroke-miterlimit:4;"/><path d="M275,7.5l0,-6" style="fill:none;stroke:#000;stroke-width:2.02px;stroke-linecap:round;stroke-miterlimit:1.5;"/><path d="M265,8.5l-2,-6" style="fill:none;stroke:#000;stroke-width:2px;stroke-linecap:round;stroke-miterlimit:1.5;"/><path d="M285,8.5l2,-6" style="fill:none;stroke:#000;stroke-width:2px;stroke-linecap:round;stroke-miterlimit:1.5;"/></g><g id="FERRY"><path d="M270.771,71.178l12.052,0" style="fill:none;stroke:#000;stroke-width:2px;stroke-linecap:round;stroke-miterlimit:1.5;"/><path d="M297.988,70.978l0,-11.978l-8,0l-6,-6l-16,0l-6,6l-7,0l0,11.978l6,0.022m32,-0.022l5,0" style="fill:#fff;stroke:#000;stroke-width:3px;stroke-linecap:round;stroke-miterlimit:1.5;"/><path d="M251.988,96l6,-6l8,8l8,-8l8,8l8,-8l8,8" style="fill:none;stroke:#000;stroke-width:3px;stroke-linecap:round;stroke-miterlimit:1.5;"/><path d="M251.988,81l14,0l0,16" style="fill:none;stroke:#000;stroke-width:2px;stroke-linecap:round;stroke-miterlimit:1.5;"/><path d="M270.988,71l12,0" style="fill:none;stroke:#000;stroke-width:2px;stroke-linecap:round;stroke-miterlimit:1.5;"/><path d="M292.988,68.5l0,5l-2.5,2.5l-5,0l-2.5,-2.5l0,-5l2.5,-2.5l5,0l2.5,2.5Z" style="fill:#fff;stroke:#000;stroke-width:3px;stroke-linecap:round;stroke-miterlimit:1.5;"/><path d="M271.01,68.469l0,5.022l-2.511,2.511l-5.022,0l-2.511,-2.511l0,-5.022l2.511,-2.511l5.022,0l2.511,2.511Z" style="fill:#fff;stroke:#000;stroke-width:3px;stroke-linecap:round;stroke-miterlimit:1.5;"/></g><g id="DEPART"><path d="M264,136l-12.012,12l46,0l-11.988,-12l-22,0Z" style="fill:#fff;fill-rule:nonzero;stroke:#000;stroke-width:3px;stroke-linecap:round;stroke-miterlimit:10;"/><path d="M273,142l0,-40" style="fill:none;fill-rule:nonzero;stroke:#000;stroke-width:3px;stroke-linecap:round;stroke-miterlimit:10;"/><path d="M293,102l-8,8l8,8l-20,0l0,-16l20,0Z" style="fill:#fff;fill-rule:nonzero;stroke:#000;stroke-width:3px;stroke-linecap:round;stroke-miterlimit:10;"/></g><path id="FORK-LEFT" serif:id="FORK LEFT" d="M287,178l7,-7l-7,-7l-5,5l-9,-9l8,-8l-23,0l-0,23l8,-8l10.988,11l0.012,20l10,0l0,-20Z" style="fill:#fff;stroke:#000;stroke-width:3px;"/><path id="Merge-50" serif:id="Merge 50" d="M270,225.5l0,-7l-10.999,0l15.987,-16l16.012,16l-11,0l0,7l2.823,9l10.177,5l-4,8l-14,-7l-14.034,7l-3.966,-8l10,-5l3,-9Z" style="fill:#fff;stroke:#000;stroke-width:3px;"/><path id="STRAIGHT-50" serif:id="STRAIGHT 50" d="M270,298l0,-30l-11,0l16,-16l16,16l-11,0l0,30l-10,0Z" style="fill:#fff;stroke:#000;stroke-width:3px;stroke-linecap:round;stroke-miterlimit:20;"/><path id="KEEP-LEFT" serif:id="KEEP LEFT" d="M298,929.998l-30,0l0,11l-16,-16l16,-16l0,11l30,0l0,10Z" style="fill:#fff;stroke:#000;stroke-width:3px;stroke-linecap:round;stroke-miterlimit:20;"/><path id="U-TURN-LEFT" serif:id="U-TURN LEFT" d="M293,757l0,36l-10,0l0,-31l-10,0l0,20l10.988,0l-15.988,15.988l-16,-15.976l11,-0.012l0,-25l5,-5l20,0l5,5Z" style="fill:#fff;stroke:#000;stroke-width:3px;stroke-linecap:round;stroke-miterlimit:1.5;"/><g id="RBT-180" serif:id="RBT 180"><path d="M276,529.5l-8,-8l0,-5l-10,0l14.5,-14.5l14.5,14.5l-10,0l0,1l9,9l0,12l-8,8l-3,0l0,2l-9,0l0,-10l2,-2l5,0l3,-3l0,-4Z" style="fill:#fff;stroke:#000;stroke-width:3px;stroke-linecap:round;stroke-miterlimit:1.5;"/><path d="M269,536.5l-3,-3l-0,-4l3,-3l4,0l3,3l-0,4" style="fill:none;stroke:#000;stroke-width:2px;stroke-linecap:round;stroke-miterlimit:1.5;"/></g><path id="SLIGHT-LEFT-50" serif:id="SLIGHT LEFT 50" d="M289,348l-0,-24l-14,-14l8,-8l-22,-0l-0,22l7,-7l11,11l-0,20l10,0Z" style="fill:#fff;stroke:#000;stroke-width:3px;"/><g id="FORK-LEFT1" serif:id="FORK LEFT"></g><g id="RBT-215" serif:id="RBT 215"><path d="M287.988,566l-14.988,0l-6,-6l8,-8l-21.998,-0l-0.002,22l8,-8l9,9l14,0l3,3l0,4l-3,3l-5,0l-2,2l-0,11l9,0l0,-3l3.031,0l7.967,-7.989l0.002,-12.011l-9.012,-9Z" style="fill:#fff;stroke:#000;stroke-width:3px;stroke-linecap:round;stroke-miterlimit:20;"/><path d="M280,575l-3,3l0,4l3,3" style="fill:none;stroke:#000;stroke-width:2px;stroke-linecap:round;stroke-miterlimit:1.5;"/></g><g id="RBT-45" serif:id="RBT 45"><path d="M267,391l0,-12l3,-0l2,-2l6,6l-8,8.031l22,-0l0,-21.994l-8,7.963l-1,-1l-11,-10l-4,0l-3,3l-5,0l-2,2l0,20l9,0Z" style="fill:#fff;stroke:#000;stroke-width:3px;stroke-linecap:round;stroke-miterlimit:20;"/><path d="M268,366l0,-4l-3,-3l-4,-0l-3,3l0,4l3,3" style="fill:none;stroke:#000;stroke-width:2px;stroke-linecap:round;stroke-miterlimit:1.5;"/></g><g id="RBT-90" serif:id="RBT 90"><path d="M253.5,440.5l9,0l0,-3l3.031,0l7.969,-8l9,0l0,10l15,-15l-15,-15l0,10l-14,0l-8,8l-4,0l-3,3l0,10" style="fill:#fff;stroke:#000;stroke-width:3px;stroke-linecap:round;stroke-miterlimit:1.5;"/><path d="M256.5,426.5l-3,-3l-0,-4l3,-3l3.5,-0l3,3l0,5" style="fill:none;stroke:#000;stroke-width:2px;stroke-linecap:round;stroke-miterlimit:1.5;"/></g><g id="RBT-135" serif:id="RBT 135"><path id="RBT-135-50" serif:id="RBT 135 50" d="M259.5,498l9.06,-0l0,-3.005l2.034,0l8.986,-8.986l-0.08,-17.01l3,-3l8,8l0,-22l-22,0l8,8l-7,7l0,15l-3,3l-5,0l-2,2l0,11Z" style="fill:#fff;stroke:#000;stroke-width:3px;stroke-linecap:round;stroke-miterlimit:20;"/><path d="M269.5,478.32l-3,-3.32l-4,0l-3,3l0,4l3,3" style="fill:none;stroke:#000;stroke-width:2px;stroke-linecap:round;stroke-miterlimit:1.5;"/></g><g id="RBT-270" serif:id="RBT 270"><path d="M252,623l14,14l0,-10l5.988,0l9,-8.91l4,-0.09l3,3l0,4l-3,3l-5,-0l-2,2l-0,11l9,-0l0,-3l3.031,0l7.969,-8l0,-12l-8.89,-8.878l-12.11,-0.122l-10,10l-0.988,0l-0.012,-10l-13.988,14Z" style="fill:#fff;stroke:#000;stroke-width:3px;stroke-linecap:round;stroke-miterlimit:1.5;"/><path d="M280.988,628l-3,-3l0,-4" style="fill:none;stroke:#000;stroke-width:2px;stroke-linecap:round;stroke-miterlimit:1.5;"/></g><g id="RBT-315" serif:id="RBT 315"><path d="M267.523,682.509l14.477,-14.509l4,-0l3,3l0,4l-3,3l-5,0l-2,2l0,11l9,0l0,-3l3.031,0l7.969,-8l-0.002,-12l-9.01,-9l-11.988,-0c0,0 -16.892,16.892 -17,17c-0.108,0.108 -8,-8 -8,-8l0,22l22,-0l-7.477,-7.491Z" style="fill:#fff;stroke:#000;stroke-width:3px;stroke-linecap:round;stroke-miterlimit:1.5;"/><path d="M282.049,678l-3.049,-3l0,-4" style="fill:none;stroke:#000;stroke-width:2px;stroke-linecap:round;stroke-miterlimit:1.5;"/></g><path id="RBT-360" serif:id="RBT 360" d="M279,735l0.012,-7l-4.012,-4l-5,-5l-0,-4l3,-3l4,0l3,3l0,4l-5,5l4,4l0.006,4.961l1.994,0.039l9,-8.989l0,-12.011l-9.039,-9l-11.961,0l-9,9l0,12.011l11,10.989l-10,0l14,12l14,-12l-10,0Z" style="fill:#fff;stroke:#000;stroke-width:3px;stroke-linecap:round;stroke-miterlimit:1.5;"/><path id="LEFT" d="M293,813l-25,-0.012l0,-11l-16,16l16,16.012l0,-11l20,0l0,24.988l9.988,0.012l0,-30l-4.988,-5Z" style="fill:#fff;stroke:#000;stroke-width:3px;stroke-linecap:round;stroke-miterlimit:1.5;"/><path id="SHARP-LEFT" serif:id="SHARP LEFT" d="M296,897l0,-40l-9,-3l-22,11l-5,-10l-7,21l21.068,7l-4.068,-8l14,-7l0,29l12,0Z" style="fill:#fff;stroke:#000;stroke-width:3px;stroke-linecap:round;stroke-miterlimit:1.5;"/><path id="EXIT-LEFT" serif:id="EXIT LEFT" d="M260,974l8,-7.863l12,12l-0,19.863l10,0l-0,-46l-8,0l-2,2l0,12l-6,-6l8,-8l-22,0l0,22Z" style="fill:#fff;stroke:#000;stroke-width:3px;stroke-linecap:round;stroke-miterlimit:1;"/></svg>